<svg width="1280" height="720" viewBox="0 0 1280 720" fill="none" xmlns="http://www.w3.org/2000/svg" role="img" aria-labelledby="title desc">
  <title id="title">oh_my_todo 中文 README 横幅</title>
  <desc id="desc">一个本地优先的个人面试工作台横幅，展示日程、判断档案和谈薪模块。</desc>
  <defs>
    <linearGradient id="background" x1="80" y1="46" x2="1218" y2="660" gradientUnits="userSpaceOnUse">
      <stop stop-color="#EEF2E7"/>
      <stop offset="0.56" stop-color="#F3ECE1"/>
      <stop offset="1" stop-color="#D8DED2"/>
    </linearGradient>
    <linearGradient id="paper" x1="88" y1="82" x2="1192" y2="638" gradientUnits="userSpaceOnUse">
      <stop stop-color="#FFFDF8"/>
      <stop offset="1" stop-color="#F2E9DD"/>
    </linearGradient>
    <linearGradient id="inkPanel" x1="104" y1="104" x2="524" y2="616" gradientUnits="userSpaceOnUse">
      <stop stop-color="#1F2924"/>
      <stop offset="1" stop-color="#121917"/>
    </linearGradient>
    <filter id="boardShadow" x="44" y="44" width="1192" height="636" filterUnits="userSpaceOnUse" color-interpolation-filters="sRGB">
      <feFlood flood-opacity="0" result="BackgroundImageFix"/>
      <feColorMatrix in="SourceAlpha" type="matrix" values="0 0 0 0 0 0 0 0 0 0 0 0 0 0 0 0 0 0 127 0" result="hardAlpha"/>
      <feOffset dy="18"/>
      <feGaussianBlur stdDeviation="24"/>
      <feColorMatrix type="matrix" values="0 0 0 0 0.1 0 0 0 0 0.12 0 0 0 0 0.1 0 0 0 0.16 0"/>
      <feBlend mode="normal" in2="BackgroundImageFix" result="effect1_dropShadow"/>
      <feBlend mode="normal" in="SourceGraphic" in2="effect1_dropShadow" result="shape"/>
    </filter>
    <filter id="moduleShadow" x="540" y="156" width="640" height="446" filterUnits="userSpaceOnUse" color-interpolation-filters="sRGB">
      <feFlood flood-opacity="0" result="BackgroundImageFix"/>
      <feColorMatrix in="SourceAlpha" type="matrix" values="0 0 0 0 0 0 0 0 0 0 0 0 0 0 0 0 0 0 127 0" result="hardAlpha"/>
      <feOffset dy="10"/>
      <feGaussianBlur stdDeviation="12"/>
      <feColorMatrix type="matrix" values="0 0 0 0 0.14 0 0 0 0 0.11 0 0 0 0 0.08 0 0 0 0.1 0"/>
      <feBlend mode="normal" in2="BackgroundImageFix" result="effect1_dropShadow"/>
      <feBlend mode="normal" in="SourceGraphic" in2="effect1_dropShadow" result="shape"/>
    </filter>
    <style>
      .mono { font-family: "SFMono-Regular", "Menlo", "Consolas", monospace; }
      .sans { font-family: "PingFang SC", "Hiragino Sans GB", "Microsoft YaHei", "Avenir Next", sans-serif; }
      .serif { font-family: "Newsreader", "Songti SC", "Noto Serif CJK SC", Georgia, serif; }
      .label { font-size: 13px; letter-spacing: 2.6px; }
      .module-title { font-size: 20px; font-weight: 700; }
      .body { font-size: 16px; }
      .small { font-size: 13px; }
    </style>
  </defs>

  <rect width="1280" height="720" rx="34" fill="url(#background)"/>

  <g opacity="0.24">
    <path d="M86 160H1194" stroke="#9BAA9B" stroke-width="1.5"/>
    <path d="M86 560H1194" stroke="#C0A98C" stroke-width="1.5"/>
    <path d="M584 82V638" stroke="#9BAA9B" stroke-width="1.5"/>
  </g>

  <g filter="url(#boardShadow)">
    <rect x="72" y="76" width="1136" height="568" rx="34" fill="url(#paper)" stroke="#BBAA91" stroke-width="1.5"/>
  </g>

  <rect x="104" y="104" width="420" height="512" rx="26" fill="url(#inkPanel)"/>
  <rect x="126" y="126" width="208" height="34" rx="17" fill="#27332D" stroke="#91A08F"/>
  <text x="150" y="148" class="sans" font-size="15" font-weight="700" letter-spacing="2.8" fill="#D7DDCF">本地优先工作台</text>

  <text x="126" y="232" class="serif" font-size="64" fill="#F7F0E2">oh_my_todo</text>
  <line x1="126" y1="262" x2="492" y2="262" stroke="#789071" stroke-width="2"/>

  <text x="126" y="316" class="sans" font-size="25" font-weight="700" fill="#EEE5D4">个人面试工作台</text>
  <text x="126" y="356" class="sans" font-size="22" fill="#C9C7B9">日程、判断、谈薪、归档，</text>
  <text x="126" y="388" class="sans" font-size="22" fill="#C9C7B9">都留在同一张</text>
  <text x="126" y="420" class="sans" font-size="22" fill="#C9C7B9">安静的本地桌面上。</text>

  <g class="sans" font-size="13" font-weight="700">
    <rect x="126" y="470" width="86" height="34" rx="17" fill="#F1E2C7"/>
    <text x="149" y="492" fill="#243028">无登录</text>
    <rect x="224" y="470" width="98" height="34" rx="17" fill="#C8D7C2"/>
    <text x="247" y="492" fill="#243028">可导出</text>
    <rect x="334" y="470" width="116" height="34" rx="17" fill="#D2B18C"/>
    <text x="363" y="492" fill="#243028">本地数据</text>
  </g>

  <text x="126" y="562" class="sans small" fill="#879488">为面试推进中间态而做。</text>

  <text x="568" y="132" class="sans" font-size="15" font-weight="700" letter-spacing="2.8" fill="#596B5D">工作台快照</text>
  <text x="568" y="166" class="sans" font-size="25" font-weight="700" fill="#223028">时间、判断和谈薪一起看</text>

  <g filter="url(#moduleShadow)">
    <rect x="568" y="194" width="286" height="218" rx="20" fill="#FFFDF8" stroke="#CDBBA2"/>
    <rect x="878" y="194" width="278" height="218" rx="20" fill="#FFFDF8" stroke="#CDBBA2"/>
    <rect x="568" y="436" width="588" height="128" rx="20" fill="#FFFDF8" stroke="#CDBBA2"/>
  </g>

  <g class="sans">
    <text x="594" y="234" class="module-title" fill="#223028">未来 7 天</text>
    <text x="772" y="234" class="sans small" font-weight="700" fill="#6E7E6B">08 已安排</text>
    <line x1="594" y1="254" x2="828" y2="254" stroke="#D9C8AE"/>

    <rect x="594" y="274" width="234" height="46" rx="12" fill="#F7F2EA" stroke="#DDD0BC"/>
    <text x="612" y="302" class="mono small" fill="#617464">04/24 周五</text>
    <text x="714" y="302" class="body" font-weight="700" fill="#2B241F">ACME · PM</text>

    <rect x="594" y="334" width="234" height="46" rx="12" fill="#F7F2EA" stroke="#DDD0BC"/>
    <text x="612" y="362" class="mono small" fill="#617464">04/25 周六</text>
    <text x="714" y="362" class="body" font-weight="700" fill="#2B241F">字节 HR</text>
  </g>

  <g class="sans">
    <text x="904" y="234" class="module-title" fill="#223028">Offer 表</text>
    <text x="1064" y="234" class="sans small" font-weight="700" fill="#8A6A4A">谈薪中</text>
    <line x1="904" y1="254" x2="1130" y2="254" stroke="#D9C8AE"/>

    <text x="904" y="294" font-size="18" font-weight="700" fill="#2B241F">Airtable · Staff PM</text>
    <text x="904" y="326" class="body" fill="#5A5046">52.0w × 15 薪</text>
    <text x="904" y="354" class="body" fill="#5A5046">首年 108.5w</text>
    <rect x="904" y="374" width="144" height="26" rx="13" fill="#E7D2B7"/>
    <text x="930" y="392" class="sans small" font-weight="700" fill="#5D3D22">继续谈 base</text>
  </g>

  <g class="sans">
    <text x="594" y="477" class="module-title" fill="#223028">公司判断档案</text>
    <text x="1030" y="477" class="sans small" font-weight="700" fill="#6E7E6B">对比 + 归档</text>
    <line x1="594" y1="496" x2="1130" y2="496" stroke="#D9C8AE"/>

    <text x="594" y="532" class="body" font-weight="700" fill="#2B241F">创业公司</text>
    <rect x="710" y="514" width="216" height="24" rx="12" fill="#E4ECDE"/>
    <rect x="710" y="514" width="144" height="24" rx="12" fill="#8FA582"/>
    <text x="974" y="532" class="sans small" font-weight="700" fill="#5A5046">03 份活跃记录</text>
  </g>

  <path d="M1112 124L1148 124C1160 124 1170 134 1170 146V146" stroke="#9A6B4F" stroke-width="2" stroke-linecap="round"/>
</svg>
