<svg width="1280" height="720" viewBox="0 0 1280 720" fill="none" xmlns="http://www.w3.org/2000/svg" role="img" aria-labelledby="title desc">
  <title id="title">oh_my_todo README banner</title>
  <desc id="desc">A quiet local-first interview workbench banner with agenda, dossier, and offer modules.</desc>
  <defs>
    <linearGradient id="background" x1="80" y1="46" x2="1218" y2="660" gradientUnits="userSpaceOnUse">
      <stop stop-color="#EEF2E7"/>
      <stop offset="0.56" stop-color="#F3ECE1"/>
      <stop offset="1" stop-color="#D8DED2"/>
    </linearGradient>
    <linearGradient id="paper" x1="88" y1="82" x2="1192" y2="638" gradientUnits="userSpaceOnUse">
      <stop stop-color="#FFFDF8"/>
      <stop offset="1" stop-color="#F2E9DD"/>
    </linearGradient>
    <linearGradient id="inkPanel" x1="104" y1="104" x2="524" y2="616" gradientUnits="userSpaceOnUse">
      <stop stop-color="#1F2924"/>
      <stop offset="1" stop-color="#121917"/>
    </linearGradient>
    <filter id="boardShadow" x="44" y="44" width="1192" height="636" filterUnits="userSpaceOnUse" color-interpolation-filters="sRGB">
      <feFlood flood-opacity="0" result="BackgroundImageFix"/>
      <feColorMatrix in="SourceAlpha" type="matrix" values="0 0 0 0 0 0 0 0 0 0 0 0 0 0 0 0 0 0 127 0" result="hardAlpha"/>
      <feOffset dy="18"/>
      <feGaussianBlur stdDeviation="24"/>
      <feColorMatrix type="matrix" values="0 0 0 0 0.1 0 0 0 0 0.12 0 0 0 0 0.1 0 0 0 0.16 0"/>
      <feBlend mode="normal" in2="BackgroundImageFix" result="effect1_dropShadow"/>
      <feBlend mode="normal" in="SourceGraphic" in2="effect1_dropShadow" result="shape"/>
    </filter>
    <filter id="moduleShadow" x="540" y="156" width="640" height="446" filterUnits="userSpaceOnUse" color-interpolation-filters="sRGB">
      <feFlood flood-opacity="0" result="BackgroundImageFix"/>
      <feColorMatrix in="SourceAlpha" type="matrix" values="0 0 0 0 0 0 0 0 0 0 0 0 0 0 0 0 0 0 127 0" result="hardAlpha"/>
      <feOffset dy="10"/>
      <feGaussianBlur stdDeviation="12"/>
      <feColorMatrix type="matrix" values="0 0 0 0 0.14 0 0 0 0 0.11 0 0 0 0 0.08 0 0 0 0.1 0"/>
      <feBlend mode="normal" in2="BackgroundImageFix" result="effect1_dropShadow"/>
      <feBlend mode="normal" in="SourceGraphic" in2="effect1_dropShadow" result="shape"/>
    </filter>
    <style>
      .mono { font-family: "SFMono-Regular", "Menlo", "Consolas", monospace; }
      .sans { font-family: "Avenir Next", "Segoe UI", "Helvetica Neue", Arial, sans-serif; }
      .serif { font-family: "Newsreader", "Iowan Old Style", Georgia, serif; }
      .label { font-size: 13px; letter-spacing: 2.6px; }
      .module-title { font-size: 20px; font-weight: 700; }
      .body { font-size: 16px; }
      .small { font-size: 13px; }
    </style>
  </defs>

  <rect width="1280" height="720" rx="34" fill="url(#background)"/>

  <g opacity="0.24">
    <path d="M86 160H1194" stroke="#9BAA9B" stroke-width="1.5"/>
    <path d="M86 560H1194" stroke="#C0A98C" stroke-width="1.5"/>
    <path d="M584 82V638" stroke="#9BAA9B" stroke-width="1.5"/>
  </g>

  <g filter="url(#boardShadow)">
    <rect x="72" y="76" width="1136" height="568" rx="34" fill="url(#paper)" stroke="#BBAA91" stroke-width="1.5"/>
  </g>

  <rect x="104" y="104" width="420" height="512" rx="26" fill="url(#inkPanel)"/>
  <rect x="126" y="126" width="246" height="34" rx="17" fill="#27332D" stroke="#91A08F"/>
  <text x="150" y="148" class="mono label" fill="#D7DDCF">LOCAL FIRST DESK</text>

  <text x="126" y="232" class="serif" font-size="64" fill="#F7F0E2">oh_my_todo</text>
  <line x1="126" y1="262" x2="492" y2="262" stroke="#789071" stroke-width="2"/>

  <text x="126" y="316" class="sans" font-size="24" fill="#EEE5D4">Interview workbench</text>
  <text x="126" y="355" class="sans" font-size="21" fill="#C9C7B9">agenda, judgment, offers,</text>
  <text x="126" y="386" class="sans" font-size="21" fill="#C9C7B9">and archive stay on</text>
  <text x="126" y="417" class="sans" font-size="21" fill="#C9C7B9">one quiet local desk.</text>

  <g class="mono small">
    <rect x="126" y="470" width="94" height="34" rx="17" fill="#F1E2C7"/>
    <text x="146" y="492" fill="#243028">NO LOGIN</text>
    <rect x="232" y="470" width="104" height="34" rx="17" fill="#C8D7C2"/>
    <text x="254" y="492" fill="#243028">JSON OUT</text>
    <rect x="348" y="470" width="122" height="34" rx="17" fill="#D2B18C"/>
    <text x="370" y="492" fill="#243028">LOCAL DATA</text>
  </g>

  <text x="126" y="562" class="mono small" fill="#879488">Built for the messy middle between rounds.</text>

  <text x="568" y="132" class="mono label" fill="#596B5D">WORKBENCH SNAPSHOT</text>
  <text x="568" y="166" class="sans" font-size="24" font-weight="700" fill="#223028">Timing, judgment, and negotiation in view</text>

  <g filter="url(#moduleShadow)">
    <rect x="568" y="194" width="286" height="218" rx="20" fill="#FFFDF8" stroke="#CDBBA2"/>
    <rect x="878" y="194" width="278" height="218" rx="20" fill="#FFFDF8" stroke="#CDBBA2"/>
    <rect x="568" y="436" width="588" height="128" rx="20" fill="#FFFDF8" stroke="#CDBBA2"/>
  </g>

  <g class="sans">
    <text x="594" y="234" class="module-title" fill="#223028">Next 7 Days</text>
    <text x="770" y="234" class="mono small" fill="#6E7E6B">08 planned</text>
    <line x1="594" y1="254" x2="828" y2="254" stroke="#D9C8AE"/>

    <rect x="594" y="274" width="234" height="46" rx="12" fill="#F7F2EA" stroke="#DDD0BC"/>
    <text x="612" y="302" class="mono small" fill="#617464">04/24 FRI</text>
    <text x="708" y="302" class="body" font-weight="700" fill="#2B241F">ACME · PM</text>

    <rect x="594" y="334" width="234" height="46" rx="12" fill="#F7F2EA" stroke="#DDD0BC"/>
    <text x="612" y="362" class="mono small" fill="#617464">04/25 SAT</text>
    <text x="708" y="362" class="body" font-weight="700" fill="#2B241F">ByteDance HR</text>
  </g>

  <g class="sans">
    <text x="904" y="234" class="module-title" fill="#223028">Offer Sheet</text>
    <text x="1064" y="234" class="mono small" fill="#8A6A4A">active</text>
    <line x1="904" y1="254" x2="1130" y2="254" stroke="#D9C8AE"/>

    <text x="904" y="294" font-size="18" font-weight="700" fill="#2B241F">Airtable · Staff PM</text>
    <text x="904" y="326" class="body" fill="#5A5046">52.0w × 15 months</text>
    <text x="904" y="354" class="body" fill="#5A5046">108.5w first-year</text>
    <rect x="904" y="374" width="164" height="26" rx="13" fill="#E7D2B7"/>
    <text x="922" y="392" class="mono small" fill="#5D3D22">pressure on base</text>
  </g>

  <g class="sans">
    <text x="594" y="477" class="module-title" fill="#223028">Company Dossiers</text>
    <text x="1014" y="477" class="mono small" fill="#6E7E6B">compare + archive</text>
    <line x1="594" y1="496" x2="1130" y2="496" stroke="#D9C8AE"/>

    <text x="594" y="532" class="body" font-weight="700" fill="#2B241F">Startups</text>
    <rect x="710" y="514" width="216" height="24" rx="12" fill="#E4ECDE"/>
    <rect x="710" y="514" width="144" height="24" rx="12" fill="#8FA582"/>
    <text x="966" y="532" class="mono small" fill="#5A5046">03 active sheets</text>
  </g>

  <path d="M1112 124L1148 124C1160 124 1170 134 1170 146V146" stroke="#9A6B4F" stroke-width="2" stroke-linecap="round"/>
</svg>
